<svg xmlns="http://www.w3.org/2000/svg" width="791.93" height="168.23" viewBox="0 0 791.93 168.23"><defs><style>.cls-1{fill:#61d1d9;}</style></defs><g id="Capa_2" data-name="Capa 2"><g id="Capa_1-2" data-name="Capa 1"><path d="M10,166.48a11.77,11.77,0,0,1-7.12-2.08C1,163,0,161.52,0,159.91V6.35a5.25,5.25,0,0,1,2.88-4.6A13.49,13.49,0,0,1,10,0a15.44,15.44,0,0,1,7.62,1.75c2.09,1.17,3.13,2.71,3.13,4.6V108.87l57-45.13a8,8,0,0,1,4.5-1.53,10.57,10.57,0,0,1,4.87,1.21,12.25,12.25,0,0,1,4,3.17,6.45,6.45,0,0,1,1.63,4.16,6,6,0,0,1-.5,2.3,4.88,4.88,0,0,1-1.75,2.09L55.75,102.08l41.5,52.79a5.13,5.13,0,0,1,1.25,3.29,7.06,7.06,0,0,1-1.75,4.38,12.94,12.94,0,0,1-4.37,3.5A11.9,11.9,0,0,1,87,167.36a7,7,0,0,1-5.75-2.85l-39.75-51L20.75,129.68v30.23c0,1.61-1,3.1-3.13,4.49A13.4,13.4,0,0,1,10,166.48Z"/><path d="M158.25,168.23a51.86,51.86,0,0,1-24.5-5.91,49.36,49.36,0,0,1-18-15.66A36.08,36.08,0,0,1,109,125.74V103.39a35.52,35.52,0,0,1,6.63-20.7A49.06,49.06,0,0,1,133.5,67.25a52.4,52.4,0,0,1,24.75-5.92,53.44,53.44,0,0,1,24.5,5.7,49.54,49.54,0,0,1,18.13,15.22,35.34,35.34,0,0,1,6.87,21.14v22.35a35.32,35.32,0,0,1-6.87,20.7,51.6,51.6,0,0,1-18.13,15.77A51,51,0,0,1,158.25,168.23Zm0-16.43a28.69,28.69,0,0,0,14.5-3.72,29.65,29.65,0,0,0,10.38-9.75A22.93,22.93,0,0,0,187,125.74V103.39A21.9,21.9,0,0,0,183.13,91a30.48,30.48,0,0,0-10.38-9.53,28.7,28.7,0,0,0-14.5-3.73,28,28,0,0,0-14.37,3.73A30.7,30.7,0,0,0,133.63,91a21.84,21.84,0,0,0-3.88,12.37v22.35a23.45,23.45,0,0,0,3.75,12.59,28.19,28.19,0,0,0,10.38,9.75A28.83,28.83,0,0,0,158.25,151.8Z"/><path d="M243,166.48a12.27,12.27,0,0,1-7.38-2.08c-1.91-1.39-2.87-2.88-2.87-4.49V69a5.26,5.26,0,0,1,2.87-4.6A14,14,0,0,1,243,62.65a12.33,12.33,0,0,1,6.75,1.75A5.29,5.29,0,0,1,252.5,69v9q4-6.35,12.5-11.5t21-5.15a43,43,0,0,1,22,5.81,46.17,46.17,0,0,1,16,15.22,38.33,38.33,0,0,1,6,21v56.52a5.28,5.28,0,0,1-3.25,4.93,15.94,15.94,0,0,1-7.25,1.64,15.34,15.34,0,0,1-7-1.64,5.27,5.27,0,0,1-3.25-4.93V103.39a22,22,0,0,0-3.88-12.26A29.88,29.88,0,0,0,295,81.49a28.87,28.87,0,0,0-37.5,8.21,22.89,22.89,0,0,0-4,13.69v56.52c0,1.61-1,3.1-3.13,4.49A13,13,0,0,1,243,166.48Z"/><path class="cls-1" d="M427.87,164.4c-2.08-1.39-3.12-2.88-3.12-4.49V103.39a22.89,22.89,0,0,0-4-13.69,28.77,28.77,0,0,0-37.5-8.21,30,30,0,0,0-10.38,9.64A22.09,22.09,0,0,0,369,103.39v56.52a5.27,5.27,0,0,1-3.25,4.93,15.37,15.37,0,0,1-7,1.64,15.91,15.91,0,0,1-7.25-1.64,5.27,5.27,0,0,1-3.25-4.93V103.39a38.33,38.33,0,0,1,6-21,46.08,46.08,0,0,1,16-15.22,43,43,0,0,1,22-5.81q12.5,0,21,5.15T425.75,78V69a5.29,5.29,0,0,1,2.75-4.6,12.28,12.28,0,0,1,6.75-1.75,13.94,13.94,0,0,1,7.37,1.75A5.25,5.25,0,0,1,445.5,69v90.91c0,1.61-1,3.1-2.88,4.49a12.22,12.22,0,0,1-7.37,2.08A13,13,0,0,1,427.87,164.4Z"/><path d="M525,168.23q-16.26,0-28.75-5.36A47.93,47.93,0,0,1,476.5,148a35.63,35.63,0,0,1-7.25-22.23v-23a34.24,34.24,0,0,1,6.87-20.6A50,50,0,0,1,494.25,67a56.69,56.69,0,0,1,48.62-.44,46.41,46.41,0,0,1,17.5,14.24A34.1,34.1,0,0,1,567,101.64q0,8.76-3.25,12.6A13.64,13.64,0,0,1,555.5,119a61.31,61.31,0,0,1-10.5.87H490v6.57a22.55,22.55,0,0,0,10,19.39q10,7.13,25.75,7.12,9.24,0,14.75-2.19a65.35,65.35,0,0,0,9-4.27,12.51,12.51,0,0,1,6.25-2.08,7.41,7.41,0,0,1,4.62,1.42,9.89,9.89,0,0,1,2.88,3.39,8.07,8.07,0,0,1,1,3.51c0,1.9-1.59,4-4.75,6.46s-7.71,4.53-13.63,6.35A70.92,70.92,0,0,1,525,168.23Zm-35-60.68h46.25c4.5,0,7.45-.47,8.87-1.42s2.13-2.81,2.13-5.58a21.85,21.85,0,0,0-3.63-12.16A27,27,0,0,0,533.5,79.3a30.56,30.56,0,0,0-14.75-3.51A32,32,0,0,0,504.5,79,27.84,27.84,0,0,0,494,87.62a20,20,0,0,0-4,12Z"/><path d="M636,168.23q-17.25,0-28.38-5.69t-16.5-15.23a43.15,43.15,0,0,1-5.37-21.57V103.83a43.39,43.39,0,0,1,5.37-21.47q5.37-9.63,16.5-15.33t28.13-5.7A69.2,69.2,0,0,1,655,63.74q8.25,2.41,12.75,5.92t4.5,6.79a8.13,8.13,0,0,1-1.13,3.83,12,12,0,0,1-3,3.62,6.71,6.71,0,0,1-4.37,1.53,9.7,9.7,0,0,1-5.38-2,37.43,37.43,0,0,0-7.75-3.83q-4.87-1.86-13.62-1.87-15.25,0-22.88,7t-7.62,19.06v21.91q0,12,7.62,19t23.13,7q9,0,14-2.08a50.47,50.47,0,0,0,7.87-3.94,10.35,10.35,0,0,1,5.63-1.86,8,8,0,0,1,4.75,1.42,10.6,10.6,0,0,1,3.12,3.4,7.89,7.89,0,0,1,1.13,3.94c0,2.19-1.59,4.49-4.75,6.9s-7.59,4.46-13.25,6.13A69.72,69.72,0,0,1,636,168.23Z"/><path d="M735.5,166.48q-20.25,0-30.88-7.89T694,133.4V20.59q0-2.85,3.25-4.6a14.48,14.48,0,0,1,7-1.75A15,15,0,0,1,711.5,16c2.16,1.17,3.25,2.7,3.25,4.6V62.65h31.5a5.4,5.4,0,0,1,4.62,2.19,8.26,8.26,0,0,1,1.63,5,7.8,7.8,0,0,1-1.63,4.93,5.5,5.5,0,0,1-4.62,2.08h-31.5V133.4q0,9.42,4.62,13.26t16.13,3.83h7.75q4.5,0,6.75,2.41a7.81,7.81,0,0,1,2.25,5.48A8.19,8.19,0,0,1,750,164q-2.25,2.52-6.75,2.52Z"/><path class="cls-1" d="M777.25,167.73a14.37,14.37,0,0,1-10.94-4.6A14.78,14.78,0,0,1,762,152.76,15,15,0,0,1,766.31,142a14.58,14.58,0,0,1,10.94-4.46A14.08,14.08,0,0,1,787.47,142a14.72,14.72,0,0,1,4.46,10.79,14.56,14.56,0,0,1-4.46,10.37A13.9,13.9,0,0,1,777.25,167.73Z"/></g></g></svg>