<?xml version="1.0" encoding="utf-8"?>
<!-- Generator: Adobe Illustrator 24.1.0, SVG Export Plug-In . SVG Version: 6.00 Build 0)  -->
<svg version="1.1" id="Capa_1" xmlns="http://www.w3.org/2000/svg" xmlns:xlink="http://www.w3.org/1999/xlink" x="0px" y="0px"
	 viewBox="0 0 48 48" style="enable-background:new 0 0 48 48;" xml:space="preserve">
<style type="text/css">
	.st0{fill:#166E74;}
</style>
<g>
	<path class="st0" d="M27.4,24.6l-6.5,6.6c-0.3,0.3-0.3,0.9,0,1.2l0.5,0.5c0.3,0.3,0.9,0.3,1.2,0l7.1-7.2l1.1-1.1
		c0.3-0.3,0.3-0.9,0-1.2l-8.3-8.2c-0.3-0.3-0.9-0.3-1.2,0l-0.5,0.5c-0.3,0.3-0.3,0.9,0,1.2l6.6,6.5C27.7,23.7,27.7,24.2,27.4,24.6z"
		/>
	<g>
		<path class="st0" d="M24,1c12.7,0,23,10.3,23,23c0,12.7-10.3,23-23,23C11.3,47,1,36.7,1,24C1,11.3,11.3,1,24,1z M24,44.5
			c11.3,0,20.5-9.2,20.5-20.5S35.3,3.5,24,3.5S3.5,12.7,3.5,24S12.7,44.5,24,44.5z"/>
	</g>
</g>
</svg>
