<?xml version="1.0" encoding="utf-8"?>
<!-- Generator: Adobe Illustrator 24.1.0, SVG Export Plug-In . SVG Version: 6.00 Build 0)  -->
<svg version="1.1" id="Capa_1" xmlns="http://www.w3.org/2000/svg" xmlns:xlink="http://www.w3.org/1999/xlink" x="0px" y="0px"
	 viewBox="0 0 40 40" style="enable-background:new 0 0 40 40;" xml:space="preserve">
<path d="M20,36.5c-4.6-3.4-8-6.7-10.2-9.9s-3.3-6.2-3.3-9.2c0-2.3,0.4-4.3,1.2-6C8.5,9.7,9.6,8.2,10.9,7s2.8-2,4.4-2.6
	s3.2-0.9,4.8-0.9s3.1,0.3,4.8,0.9s3,1.5,4.3,2.6c1.3,1.2,2.4,2.6,3.2,4.3s1.2,3.7,1.2,6c0,3-1.1,6.1-3.3,9.2S24.6,33,20,36.5z
	 M20,20.5c1,0,1.8-0.3,2.5-1c0.7-0.7,1-1.5,1-2.5s-0.3-1.8-1-2.5c-0.7-0.7-1.5-1-2.5-1s-1.8,0.3-2.5,1c-0.7,0.7-1,1.5-1,2.5
	s0.3,1.8,1,2.5C18.2,20.2,19,20.5,20,20.5z"/>
</svg>
