<?xml version="1.0" encoding="utf-8"?>
<!-- Generator: Adobe Illustrator 24.1.0, SVG Export Plug-In . SVG Version: 6.00 Build 0)  -->
<svg version="1.1" id="Capa_1" xmlns="http://www.w3.org/2000/svg" xmlns:xlink="http://www.w3.org/1999/xlink" x="0px" y="0px"
	 viewBox="0 0 48 48" style="enable-background:new 0 0 48 48;" xml:space="preserve">
<style type="text/css">
	.st0{fill:#166E74;}
</style>
<g>
	<path class="st0" d="M20.6,23.4l6.5-6.6c0.3-0.3,0.3-0.9,0-1.2l-0.5-0.5c-0.3-0.3-0.9-0.3-1.2,0l-7.1,7.2l-1.1,1.1
		c-0.3,0.3-0.3,0.9,0,1.2l8.3,8.2c0.3,0.3,0.9,0.3,1.2,0l0.5-0.5c0.3-0.3,0.3-0.9,0-1.2l-6.6-6.5C20.3,24.3,20.3,23.8,20.6,23.4z"/>
	<g>
		<path class="st0" d="M24,47C11.3,47,1,36.7,1,24C1,11.3,11.3,1,24,1c12.7,0,23,10.3,23,23C47,36.7,36.7,47,24,47z M24,3.5
			C12.7,3.5,3.5,12.7,3.5,24S12.7,44.5,24,44.5S44.5,35.3,44.5,24S35.3,3.5,24,3.5z"/>
	</g>
</g>
</svg>
