<?xml version="1.0" encoding="utf-8"?>
<!-- Generator: Adobe Illustrator 24.1.0, SVG Export Plug-In . SVG Version: 6.00 Build 0)  -->
<svg version="1.1" id="Capa_1" xmlns="http://www.w3.org/2000/svg" xmlns:xlink="http://www.w3.org/1999/xlink" x="0px" y="0px"
	 viewBox="0 0 40 40" style="enable-background:new 0 0 40 40;" xml:space="preserve">
<path d="M20,39.2L14.9,34H6.8c-0.8,0-1.4-0.3-1.9-0.8C4.3,32.7,4,32,4,31.2V4.8C4,4,4.3,3.3,4.8,2.8C5.3,2.3,6,2,6.8,2h26.5
	c0.8,0,1.4,0.3,2,0.8S36,4,36,4.8v26.5c0,0.8-0.3,1.5-0.8,2S34,34,33.2,34h-8.1L20,39.2z M20,20.6c1.7,0,3.1-0.6,4.2-1.7
	c1.2-1.1,1.7-2.5,1.7-4.2c0-1.7-0.6-3.1-1.7-4.2c-1.1-1.1-2.6-1.7-4.2-1.7c-1.7,0-3.1,0.6-4.2,1.7c-1.2,1.1-1.7,2.5-1.7,4.2
	c0,1.7,0.6,3.1,1.7,4.2C17,20,18.4,20.6,20,20.6z M20,36.8l4.4-4.4h8.9c0.3-0.1,0.6-0.3,0.8-0.5s0.3-0.5,0.3-0.8
	c-1.9-1.8-4.1-3.2-6.5-4.3s-5.1-1.6-7.9-1.6c-2.9,0-5.5,0.5-8,1.6c-2.4,1.1-4.6,2.5-6.5,4.3c0,0.3,0.1,0.6,0.4,0.8s0.5,0.4,0.9,0.5
	h8.9L20,36.8z"/>
</svg>
