<?xml version="1.0" encoding="utf-8"?>
<!-- Generator: Adobe Illustrator 24.1.0, SVG Export Plug-In . SVG Version: 6.00 Build 0)  -->
<svg version="1.1" id="Capa_1" xmlns="http://www.w3.org/2000/svg" xmlns:xlink="http://www.w3.org/1999/xlink" x="0px" y="0px"
	 viewBox="0 0 29 29" style="enable-background:new 0 0 29 29;" xml:space="preserve">
<style type="text/css">
	.st0{fill:#166E74;}
</style>
<path class="st0" d="M14.5,13.3c-1.7,0-3-0.6-4.1-1.6c-1.1-1.1-1.6-2.5-1.6-4.1c0-1.7,0.5-3.1,1.6-4.2s2.5-1.6,4.1-1.6
	s3,0.5,4.1,1.6s1.6,2.5,1.6,4.2c0,1.6-0.5,3-1.6,4.1C17.6,12.7,16.2,13.3,14.5,13.3z M0.5,27.8v-2.9c0-0.9,0.2-1.7,0.8-2.4
	s1.2-1.2,2-1.6c2-0.9,3.9-1.5,5.8-2s3.7-0.7,5.5-0.7s3.6,0.2,5.5,0.7s3.8,1.1,5.8,2c0.8,0.4,1.5,0.9,2,1.6s0.8,1.5,0.8,2.4v2.9H0.5z
	"/>
</svg>
